<?xml version="1.0" encoding="UTF-8"?> <!-- Generator: Adobe Illustrator 24.3.0, SVG Export Plug-In . SVG Version: 6.00 Build 0) --> <svg xmlns="http://www.w3.org/2000/svg" xmlns:xlink="http://www.w3.org/1999/xlink" version="1.1" id="Capa_1" x="0px" y="0px" viewBox="0 0 500 500" style="enable-background:new 0 0 500 500;" xml:space="preserve"> <style type="text/css"> .st0{fill-rule:evenodd;clip-rule:evenodd;fill:#006AFF;} </style> <path class="st0" d="M377.7,126.1c-5.1,0.1-9.2-3.9-9.2-9c0-4.9,4.1-9,9.2-9c5.1,0,9.2,4.1,9.2,9 C386.9,122.1,382.8,126.1,377.7,126.1 M406.9,335.4c5.1,0,9.2,4,9.2,9c0,4.9-4.1,9-9.2,9c-5,0.1-9.1-4-9.2-9 C397.6,339.4,401.8,335.4,406.9,335.4 M306.6,262.1c5.1,0,9.2,4.1,9.2,9c0,5-4.1,9-9.2,9c-5.1,0.1-9.1-3.9-9.2-9l0,0 C297.4,266.1,301.5,262.1,306.6,262.1 M314.9,372c0-4.9,4.2-9,9.2-9s9.2,4.1,9.2,9s-4.1,9-9.2,9C319.1,381.1,315,377,314.9,372 M457.8,329.7c0,23.8-6.5,100.8-89.4,102.2h-0.1c-6.3,0.6-13.4-2.1-21.1-6.9c-1.5-0.9-2.9-1.9-4.3-3c-4.7-3.5-11.2-2.8-15,1.7 c-3.6,4.4-2.9,10.8,1.5,14.4c0.1,0.1,0.2,0.1,0.3,0.2c1.8,1.5,3.8,2.8,5.8,4.1c5.5,3.5,11,6.1,16.4,7.8 c-8.6,19.1-25.2,28.9-49.5,28.9c-29.3,0-39.8-30-41.8-36.4c0.1-4.9,0.2-21.1,0-25.1v-35.3h34.8c4.3,11.3,15.5,19.4,28.6,19.4 c16.9,0,30.6-13.4,30.6-29.8c0-16.4-13.7-29.8-30.6-29.8c-13.1,0-24.2,8.1-28.6,19.4h-34.9V191h33.4v52.9c-10.5,4.7-18,15.1-18,27.2 c0,16.4,13.7,29.8,30.6,29.8c13.1,0,24.3-8.1,28.6-19.4h61v35.1c-11.9,4.1-19.9,15.3-20,27.8c0,16.4,13.7,29.8,30.6,29.8 c16.9,0,30.6-13.3,30.6-29.8c-0.1-12.5-8-23.6-19.9-27.7V271c0-5.8-4.8-10.4-10.7-10.4h-71.7c-3.4-8.7-10.7-15.3-19.7-17.9V191h62.2 c5.8,0.1,10.6-4.6,10.7-10.4l0,0V145c11.6-4.2,20-15.1,20-27.9c0-16.4-13.7-29.8-30.6-29.8c-16.9,0-30.6,13.3-30.6,29.8 c0,12.7,8.3,23.6,19.9,27.8v25.3H260.7V82.3c0-4.8,0.1-23.1,0.2-29c2.6-6.3,14.9-32.5,41.6-32.5c24.3,0,40.8,9.7,49.4,28.8 c-19.7,6-32,21.8-37.6,37.4c-0.6,1.6-1.1,3.3-1.6,4.8c-1.7,5.5,1.4,11.3,6.8,13c0.1,0,0.1,0,0.1,0.1c5.6,1.7,11.5-1.3,13.4-6.8 l1.4-4.1c2.8-8,12.7-26,33.9-26c83,0.1,89.4,78.3,89.4,102.3c0,9.4-1.3,39-15.7,63.9c-3.2-2.3-6.5-4.6-10.1-6.5 c13.1-16.6,7.3-33.7-2.9-44.2l-2-1.9c-4.2-3.9-10.4-3.2-14.4,0.9c-4.1,4.2-3.3,11.4,1,15.4c9.5,9.8,1.6,17.4-1.1,19.9 c-0.4,0.4-0.6,0.9-0.9,1.3c-5.8-1.6-11.9-2.8-17.9-3.5c-5.8-0.7-11.1,3.4-11.8,9.2l0,0c-0.6,5.8,3.6,10.9,9.4,11.5h0.1 c18.6,2,33.5,8.9,44.4,20.4C456.2,283,457.8,319.2,457.8,329.7 M100.6,358.3c-5.1,0.1-9.1-3.9-9.2-9c0-5,4.2-9,9.2-9s9.2,4,9.2,9 C109.9,354.2,105.7,358.3,100.6,358.3 M179.6,302.5c5.1,0,9.2,4.1,9.2,9c-0.1,5.1-4.1,9-9.2,9l0,0c-5.1,0.1-9.1-4-9.2-9 S174.5,302.6,179.6,302.5 M106.9,180.4c-0.1,5.1-4.2,9-9.2,9l0,0c-5,0.1-9.1-4-9.2-9c0-5,4.1-9,9.2-9 C102.7,171.5,106.9,175.5,106.9,180.4 M188.1,117.8c0,5-4.2,9-9.2,9c-5,0.1-9.1-3.9-9.2-9c0-5,4.1-9,9.2-9 C184,108.9,188.1,112.9,188.1,117.8 M197.5,479.2c-24,0-40.5-9.6-49.2-28.3c6.2-1.6,12.5-4.3,18.8-8.4c4.8-3,6.3-9.3,3.3-14.1 c-0.1-0.1-0.1-0.2-0.2-0.3c-3.3-4.8-9.9-6.2-14.8-3c-7.5,4.8-14.5,7.5-21,6.8c-0.6,0-1.1,0.2-1.8,0.3c-0.3,0-0.6-0.1-0.9-0.1 c-83.2,0-89.6-78.4-89.6-102.4c0-9.6,1.4-40.3,16.8-65.6c1.9,1,4,1.8,6,2.5c-3,18.2,8.3,31.2,22.6,36.6l2.3,0.9 c5.5,2,11.6-0.9,13.7-6.3c1.9-5.4-0.9-11.3-6.3-13.2c-0.1,0-0.1-0.1-0.2-0.1l-1.8-0.6c-8.8-3.3-9.8-9-9.2-13.3c1,0,2.1,0.1,3.1,0.1 c10.9,0,20.3-2.3,28.3-7.1c4.9-2.8,6.6-9.1,3.8-14c-0.1-0.1-0.1-0.2-0.2-0.4c-3.1-5-9.7-6.5-14.7-3.5c-5.6,3.3-13.1,4.6-22.1,3.8 c-9.1-0.8-16-3.3-20.8-7.3c-19.4-26.2-21.1-61.5-21.1-71.9c0-24,6.5-102.4,91.7-102.4h0.1c6.3-0.2,12,1.1,17.1,4.1 c5.1,3,11.5,1.4,14.7-3.6c2.9-4.8,1.4-11.2-3.4-14.1c-0.1-0.1-0.2-0.1-0.3-0.1c-4.2-2.4-8.8-4.2-13.4-5.3c8.8-18.5,25.2-28,49.1-28 c29.2,0,39.8,30,41.8,36.4c-0.1,5-0.2,21.1,0,25v25h-31.8c-4.6-11.7-15.9-19.4-28.5-19.4c-16.9,0-30.6,13.3-30.6,29.8 s13.7,29.8,30.6,29.8c13.1,0,24.2-8.1,28.5-19.4h31.9V170H126.4c-4.6-11.7-15.9-19.4-28.5-19.4c-16.9,0-30.6,13.4-30.6,29.8 s13.7,29.8,30.6,29.8c13.1,0,24.2-8.1,28.6-19.4h113.1v36.9h-59.8c-5.8-0.1-10.6,4.6-10.7,10.4v45.5c-11.8,4.2-19.8,15.3-19.9,27.8 c0,16.4,13.7,29.8,30.6,29.8c16.9,0,30.6-13.4,30.6-29.8c0-12.8-8.3-23.6-19.9-27.8v-35.1h49.1v135.5H111.6v-6.9 c11.6-4.3,19.9-15.1,19.9-27.9c0-16.4-13.7-29.8-30.6-29.8s-30.6,13.4-30.6,29.8c0,12.8,8.3,23.6,19.9,27.9v17.4 c0,5.8,4.8,10.4,10.7,10.4h138.7v12.8c0,4.9-0.1,23.1-0.2,29C236.5,453.2,224.3,479.2,197.5,479.2 M479.2,170.3 c0-20.1-5.1-118-105.1-122.9C363.1,16.8,338,0,302.5,0c-27,0-43.5,16.2-52.8,29.9C239.6,14.6,222.8,0,197.5,0 c-35.4,0-60.5,16.7-71.6,47.2C26,50.9,20.8,150.1,20.8,170.3c0,11.4,1.6,49.1,21.8,79.6c-20.2,30.6-21.8,68.4-21.8,79.8 c0,20.1,5.1,118.1,105.1,122.9c11,30.7,36.1,47.5,71.6,47.5c27,0,43.5-16.2,52.8-29.9c10,15.3,26.9,29.9,52.2,29.9 c35.4,0,60.5-16.6,71.6-47.2c100-3.8,105.1-103,105.1-123.2c0-11.4-1.6-49.1-21.8-79.6C477.5,219.5,479.2,181.7,479.2,170.3"></path> </svg> 