<?xml version="1.0" encoding="UTF-8"?> <!-- Generator: Adobe Illustrator 24.3.0, SVG Export Plug-In . SVG Version: 6.00 Build 0) --> <svg xmlns="http://www.w3.org/2000/svg" xmlns:xlink="http://www.w3.org/1999/xlink" version="1.1" id="Capa_1" x="0px" y="0px" viewBox="0 0 500 500" style="enable-background:new 0 0 500 500;" xml:space="preserve"> <style type="text/css"> .st0{fill-rule:evenodd;clip-rule:evenodd;fill:#006AFF;} </style> <path class="st0" d="M165.1,336.3c4.1-4.1,10.7-4.1,14.7,0c4.1,4.1,4.1,10.7,0,14.7l0,0l-81,80.9c-4.1,4.1-10.7,4.1-14.7,0.1 c0,0,0,0-0.1-0.1l-36.4-36.4c-4.1-4.1-4.1-10.7,0-14.7c4.1-4.1,10.7-4.1,14.7,0l0,0l29,29C91.5,409.8,165.1,336.3,165.1,336.3z M337.9,246.3c13.6-13,20.5-33.4,20.5-60.3c0-27-6.9-47.4-20.5-60.5c-13.2-12.7-33-19.1-59.2-19.1c-26,0-45.9,6.4-59,19.1 c-13.5,13.1-20.4,33.4-20.4,60.5s6.9,47.3,20.3,60.3c13,12.6,32.9,18.9,59,18.9C304.9,265.2,324.8,258.8,337.9,246.3L337.9,246.3z M278.7,85.6c31.7,0,56.5,8.4,73.6,24.9c17.9,17.1,26.9,42.5,26.9,75.4s-9,58.2-26.9,75.3c-17.1,16.4-41.9,24.8-73.6,24.8 c-31.7,0-56.4-8.3-73.5-24.8c-17.7-17.1-26.8-42.4-26.8-75.3s9-58.3,26.8-75.4C222.3,94,247.1,85.6,278.7,85.6L278.7,85.6z M467.8,314.3c10-58.1,11.2-187,11.2-226.3c-46.2,3.8-74.1-14.4-100.9-32.1c-25.9-17.4-52.8-35.1-99.3-35.1h-0.2 c-46.4,0-73.3,17.7-99.2,35c-27,17.7-54.9,36.3-100.9,32.3c0,31.7,0.9,120.9,6.5,184.9c9-1.4,18.4-2.5,28.6-2.5 c47.4,0,81.5,16,99.4,49h126.8c40.1,0,73.3,12.3,95.8,35.9c1.3,1.3,3.6,4.3,5.8,7.5C455.3,347,464.9,330.5,467.8,314.3L467.8,314.3z M278.7,478c19.7-9.6,99-50.7,148.5-99.5c-2.1-3-4.2-5.9-6.5-8.8c-18.6-19.2-46.5-29.4-80.8-29.4H221.5c3.8,12.9,6,27.1,6,43.8 c0,23.6-4.3,42.8-11.7,58.8C244.3,460.4,269.1,473.1,278.7,478L278.7,478z M113.7,476.9c63.3,0,92.9-29.6,92.9-92.8 c0-63.4-29.6-92.8-92.9-92.8c-63.3,0-92.9,29.4-92.9,92.8C20.8,447.3,50.5,476.9,113.7,476.9z M499.9,76.3 c0.2,6.9,0.6,170.9-11.7,241.6C472.4,408.9,291.1,495.4,283.4,499c-1.4,0.6-2.9,1.1-4.6,1.1c-1.5-0.1-3-0.4-4.4-1.1 c-1.3-0.6-31.9-15.2-69.4-38.3c-19.2,24.8-50.1,37.1-91.3,37.1C41.8,497.7-0.1,461.4-0.1,384c0-57.6,23.2-92.1,64.7-106.3 c-7.3-79.5-6.8-200.2-6.8-201.5c0-3.3,1.4-6.3,3.8-8.1c2.5-2.1,5.8-2.7,9-2.1c44.9,7.1,69.4-9,97.3-27.7C195.2,20.4,226.1,0,278.7,0 h0.2c52.7,0,83.5,20.4,110.7,38.3c28.2,18.8,52.7,34.8,97.5,27.7c2.9-0.4,6.5,0.4,8.8,2.3C498.3,70.4,499.9,73.1,499.9,76.3 L499.9,76.3z"></path> </svg> 