<?xml version="1.0" encoding="UTF-8"?> <!-- Generator: Adobe Illustrator 24.3.0, SVG Export Plug-In . SVG Version: 6.00 Build 0) --> <svg xmlns="http://www.w3.org/2000/svg" xmlns:xlink="http://www.w3.org/1999/xlink" version="1.1" id="Capa_1" x="0px" y="0px" viewBox="0 0 500 500" style="enable-background:new 0 0 500 500;" xml:space="preserve"> <style type="text/css"> .st0{fill:#006AFF;} </style> <path class="st0" d="M433.8,61.4C391.5,20.6,329.7,0,249.9,0C86.5,0,0,86.6,0,250.1s86.5,249.8,249.9,249.8 c163.5,0,250-86.4,250-249.9C499.9,167.2,477.6,103.7,433.8,61.4z M53.3,401.4c1-0.5,2.2-1.5,3.7-3l79.5-78.4l13.4,13.7l6.9,7 l20.4,20.6l-82.4,81.3c-0.3,0.3-0.5,0.6-0.7,0.9c-6.4-4.7-12.5-9.7-18.1-15.2C67.5,420.2,60,411.2,53.3,401.4z M424,428.3 c-39.6,38.1-98.1,57.4-174.1,57.4c-58.6,0-106.8-11.5-143.9-34.2l86.2-85.2c2.8-2.7,2.8-7.3,0.1-10l-12.5-12.6 c35.3-19.1,90.5-40.5,166.4-45.5c1.3,5.7,4.1,10.7,8.4,14.8c6,5.8,14.2,8.8,24.1,8.8c10,0,17.9-2.8,24.1-8.8c6.2-6,9.3-13.7,9.3-23 s-3.3-17.1-9.3-23s-14.2-8.8-24.1-8.8s-17.9,2.8-24.1,8.8c-4.8,4.7-7.8,10.4-8.9,17.1c-73.5,4.7-128.5,24.5-165.3,43.3l151.3-149.4 c4.9,3.2,10.3,4.8,16.2,4.8h0.9c8.5-0.2,16.4-3.9,23.4-10.9c7-7,10.8-14.8,11-23.2c0.2-8.6-3-16.2-9.6-22.8 c-6.6-6.5-14.3-9.7-22.9-9.5c-8.5,0.2-16.3,3.9-23.4,10.9c-7.1,7-10.8,14.8-11,23.2c-0.2,6.4,1.6,12.3,5.2,17.6L168,319.5 c19.3-36.9,40.1-93.2,44.9-169.1c6.4-1.2,11.9-4.2,16.3-8.7c5.8-6,8.8-14.2,8.8-24.1c0-9.9-2.8-17.9-8.8-24.1 c-6-6.2-13.7-9.3-23-9.3c-9.3,0-17.1,3.3-23,9.3s-8.8,14.2-8.8,24.1s3.1,18.1,8.8,24.1c4.3,4.5,9.4,7.3,15.5,8.6 c-4.9,76-26.3,131.4-45.4,166.7l-11.8-12c-2.7-2.8-7.3-2.8-10-0.1L47,388.3c0,0-0.1,0.1-0.1,0.1c-0.4,0.4-0.7,0.8-1,1.2 c-21-36.5-31.7-83.3-31.7-139.7c0-78.8,20.8-138.8,61.7-178.3c39.5-38.1,98.1-57.4,174-57.4S384.4,33.6,424,71.7 c41,39.5,61.8,99.6,61.8,178.3S465,388.8,424,428.3z M362.1,290.5v-0.4c0-4.7,1.3-8,4.1-10.8s7-4.1,12.5-4.1s9.6,1.5,12.5,4.1 c2.8,2.6,4.1,6.1,4.1,10.7c0,4.6-1.3,8-4.1,10.7c-2.8,2.8-7,4.1-12.5,4.1s-9.6-1.4-12.5-4.1C363.6,298.2,362.2,294.9,362.1,290.5z M333,150.9c0.1-3.9,2-7.8,6-11.7c4.1-3.9,8-5.9,12-6c4-0.1,7.3,1.4,10.6,4.6s4.8,6.5,4.6,10.3c-0.1,3.9-2.1,7.8-6,11.7 c-4,3.9-7.9,5.9-12,6c-4,0.1-7.3-1.4-10.6-4.6C334.4,158,333,154.7,333,150.9z M221.1,117.5c0,5.5-1.4,9.7-4.1,12.5 c-2.7,2.8-6.1,4.1-10.7,4.1h-0.4c-4.4-0.1-7.7-1.4-10.3-4.1c-2.8-2.8-4.1-7-4.1-12.5c0-5.5,1.5-9.7,4.1-12.5 c2.6-2.8,6.1-4.1,10.7-4.1c4.6,0,8,1.3,10.7,4.1C219.7,107.9,221.1,112,221.1,117.5z"></path> </svg> 