<?xml version="1.0" encoding="UTF-8"?> <!-- Generator: Adobe Illustrator 24.3.0, SVG Export Plug-In . SVG Version: 6.00 Build 0) --> <svg xmlns="http://www.w3.org/2000/svg" xmlns:xlink="http://www.w3.org/1999/xlink" version="1.1" id="Capa_1" x="0px" y="0px" viewBox="0 0 500 500" style="enable-background:new 0 0 500 500;" xml:space="preserve"> <style type="text/css"> .st0{fill-rule:evenodd;clip-rule:evenodd;fill:#006AFF;} </style> <desc>Created with sketchtool.</desc> <g id="Page-1"> <g id="Sábana-de-iconos-Copy" transform="translate(-516.000000, -2692.000000)"> <path id="ic_intranet" class="st0" d="M961.3,3101.1c18.4,0,33.3,14.6,33.3,32.5c0,18.1-14.9,32.7-33.3,32.7 c-18.6,0-33.5-14.6-33.5-32.7C927.9,3115.6,942.8,3101.1,961.3,3101.1z M666.7,3055.7c40.6-9.7,78.3-12.5,95.2-13.3v127.7 C721.2,3163.5,686,3119.1,666.7,3055.7z M578.3,3092.1c20.1-13.5,43.5-23.5,67.7-30.8c13.7,45.4,35.4,81.8,62,104.4 C649.8,3155.8,606.7,3131.2,578.3,3092.1z M567,3074.5c-17.9-32-27.7-72-29.2-119.9h91.6c0.9,30.6,4.7,59.9,11.1,86.6 C614.8,3048.9,589,3059.7,567,3074.5z M566.6,2810.2c22.6,14.9,48.2,25.8,73.6,33.5c-6.6,27.7-10.2,58.1-10.9,90.1h-91.6 C538.6,2884.2,548.2,2843.1,566.6,2810.2z M708.2,2718.3c-26.7,22.8-48.5,59.5-62.3,105.3c-23.7-7.3-47.4-17.3-67.9-31 C606.3,2753.2,649.6,2728.4,708.2,2718.3z M761.9,2713.8v128.3c-16.9-0.9-54.4-3.3-95.4-13.1C686,2765.2,721,2720.7,761.9,2713.8z M650.7,2933.8c0.6-30,4.3-58.5,10.5-84.5c43.3,10.6,83,13.1,100.7,13.7v70.7L650.7,2933.8L650.7,2933.8z M761.9,2954.6v67 c-17.5,0.6-57.4,3.3-100.7,13.9c-6-25-9.6-52.2-10.5-81H761.9z M961.3,2722.2c18.4,0,33.3,14.7,33.3,32.7s-14.9,32.4-33.3,32.4 c-18.6,0-33.5-14.5-33.5-32.4C927.9,2737,942.8,2722.2,961.3,2722.2z M961.3,2912.3c18.4,0,33.3,14.6,33.3,32.4 c0,18.1-14.9,32.7-33.3,32.7c-18.6,0-33.5-14.6-33.5-32.7C927.9,2926.9,942.8,2912.3,961.3,2912.3z M785.8,2955.2h121.7 c5.1,24.5,27.1,43.1,53.8,43.1c30.1,0,54.7-24,54.7-53.5c0-29.3-24.5-53.2-54.7-53.2c-26.7,0-48.7,18.5-53.8,42.8H785.8 c-0.9,0-1.7,0.4-2.6,0.6v-39.3h79.2c5.8,0,10.7-4.6,10.7-10.4l1.3-120.1h32c0.4,0,0.6-0.2,1.1-0.2c4.9,24.5,27.1,43,53.8,43 c30.1,0,54.7-23.9,54.7-53.3c0-29.5-24.5-53.4-54.7-53.4c-26.7,0-48.9,18.7-53.8,43.3c-0.4,0-0.6-0.2-1.1-0.2h-42.7 c-5.8,0-10.5,4.6-10.7,10.2l-1.3,120.2h-68.5v-172.5c0-5.6-4.7-10.4-10.7-10.4c-167.8,0-256.6,86.6-256.6,250.1 c0,0.4,0,1.1,0.2,1.6c-0.2,0.2-0.2,0.2-0.2,0.4c0,0,0.2,0.2,0.2,0.4c0.2,59.9,12.6,109.4,36.5,147.9c0.4,1.5,1.1,2.7,1.9,4 c0.4,0.6,1.3,0.9,1.7,1.3c41.4,62,114,94.3,216.3,94.3c6,0,10.7-4.6,10.7-10.4v-168.1h68.5l1.3,120.2c0.2,5.6,4.9,10.2,10.7,10.2 h42.7c0.4,0,0.6,0,1.1-0.2c4.9,24.5,27.1,43.3,53.8,43.3c30.1,0,54.7-24,54.7-53.5c0-29.4-24.5-53.3-54.7-53.3 c-26.7,0-48.9,18.6-53.8,43c-0.4,0-0.6-0.2-1.1-0.2h-32l-1.3-120.1c0-5.8-4.9-10.4-10.7-10.4h-79.2v-37.8 C784.1,2955,785,2955.2,785.8,2955.2z"></path> </g> </g> </svg> 