<?xml version="1.0" encoding="UTF-8"?> <!-- Generator: Adobe Illustrator 24.3.0, SVG Export Plug-In . SVG Version: 6.00 Build 0) --> <svg xmlns="http://www.w3.org/2000/svg" xmlns:xlink="http://www.w3.org/1999/xlink" version="1.1" id="Capa_1" x="0px" y="0px" viewBox="0 0 500 500" style="enable-background:new 0 0 500 500;" xml:space="preserve"> <style type="text/css"> .st0{fill-rule:evenodd;clip-rule:evenodd;fill:#006AFF;} </style> <path class="st0" d="M395.1,118.7c-0.1,0.6-0.3,1.3-0.3,1.9c-1.5,34.9-20.5,51.9-58.1,51.9c-13.7,0-24.7-2.5-33.5-7 c13.9-20.7,31.9-37.8,55.1-44.3c5.5-1.4,8.8-7,7.4-12.5c0-0.1-0.1-0.2-0.1-0.4c-1.8-5.5-7.8-8.7-13.4-7 c-27.5,7.8-48.7,26.3-65.2,49.7c-5.7-8.9-8.6-20.5-8.6-34.7c0-37.7,19.1-56.1,58.4-56.1h46.9c6.2-0.1,11.3,4.8,11.5,11L395.1,118.7 L395.1,118.7z M380,282.9v37.9c0,6-5.1,11-11.4,11H131.2c-6.2,0.1-11.2-4.8-11.4-10.9V283c0-6,5.1-11,11.4-11h237.4 C374.9,272,380,276.9,380,282.9z M334.9,472.4c0,3.8-3.2,6.9-7.1,6.9H172.1c-4,0-7.2-3.1-7.3-8l-13.7-118.8h197.3L334.9,472.4z M163.5,133.3c-37.7,0-56.8-17.1-58.3-51.7c0-0.8-0.1-1.6-0.3-2.3V31.9c0-6.2,5.2-11.2,11.6-11.2h47.1c39.4,0,58.6,18.4,58.6,56.3 c0,13.7-3,25-8.6,34c-26.1-41.8-54.9-49.9-57-50.4c-5.6-1.4-11.3,1.8-13,7.3c-1.5,5.5,1.8,11.2,7.3,12.7c0.1,0,0.1,0,0.1,0 c0.4,0.1,24.5,7.6,46.6,45.6C188.6,130.9,177.1,133.3,163.5,133.3L163.5,133.3z M383.7,39.6h-47c-50.9,0-80,28-80,76.8 c0,18.5,4.1,34.1,12.8,47.2l5.5,6.8c-10.2,18.6-18.1,38.8-24.1,58.6c-5.4-41.8-15-73.8-26.2-97.5l2.9-3.2c0.1-0.2,0.3-0.4,0.5-0.6 c10.4-13.1,15.6-30.2,15.6-50.7c-0.1-49.7-28.5-77-80.2-77h-47.1C98.2,0,83.3,14.3,83.3,31.9v48.8c0,0.8,0.1,1.7,0.4,2.6 c2.5,45.6,30.7,70.7,79.8,70.7c16.9,0,31.3-3.2,43.5-9.5c11,24.9,20.6,59.2,24.8,106.3c0,0.1,0.1,0.3,0.1,0.4H131.2 c-18.1,0-32.9,14.2-32.9,31.7v37.9c0,16.9,13.9,30.6,31.3,31.4l13.8,120.1c0,15.2,12.9,27.6,28.7,27.6h155.6 c15.9,0,28.7-12.4,28.7-26.5l13.9-121.2c17.4-0.9,31.3-14.6,31.3-31.4v-37.9c0-17.4-14.8-31.7-33-31.7H266.9 c5.1-19.6,13.3-44.8,25.5-67.9c12.1,6.3,26.7,9.9,44.3,9.9c48.7,0,76.9-24.8,79.6-70.3c0.2-0.9,0.4-1.8,0.4-2.7V71.4 C416.7,53.8,401.8,39.6,383.7,39.6L383.7,39.6z"></path> </svg> 